<?xml version="1.0" encoding="utf-8"?>
<!-- Generator: Adobe Illustrator 26.0.3, SVG Export Plug-In . SVG Version: 6.00 Build 0)  -->
<svg version="1.1" id="Layer_1" xmlns="http://www.w3.org/2000/svg" xmlns:xlink="http://www.w3.org/1999/xlink" x="0px" y="0px"
	 viewBox="0 0 81 22" style="enable-background:new 0 0 81 22;" xml:space="preserve">
<style type="text/css">
	.st0{fill:#0089CF;}
	.st1{fill:#FFFFFF;}
</style>
<polygon class="st0" points="78.3,15.8 78.3,13.2 77.2,13.2 77.2,12.8 80,12.8 80,13.2 78.9,13.2 78.9,15.8 "/>
<polygon points="7.2,21.4 2,7.2 5.1,7.2 9.2,18.1 13.1,7.2 15.2,7.2 10.2,21.4 "/>
<path d="M17,7.2h2.9v8.7c0,1.6,0.3,2.6,0.8,3.1c0.6,0.5,1.2,0.8,2.1,0.8s1.5-0.3,2-0.8s0.7-1.5,0.7-2.9V7.2H28v8.7
	c0,1.7-0.2,2.8-0.6,3.5c-0.4,0.7-1,1.3-1.8,1.7c-0.8,0.4-1.8,0.6-3,0.6s-2.2-0.2-3-0.6c-0.8-0.4-1.5-0.9-2-1.7
	c-0.5-0.8-0.7-2-0.7-3.6L17,7.2L17,7.2z"/>
<path class="st1" d="M32.1,17.9v0.4l0.1-0.1C32.2,18.1,32.2,18,32.1,17.9L32.1,17.9z"/>
<path class="st0" d="M34,13.7c0,0,0-0.1,0.1-0.1c0,0,0.1,0,0.1,0.1c0,0,0,0.1-0.1,0.1C34,13.9,34,13.8,34,13.7"/>
<path class="st0" d="M41,17.2c-0.2-0.5-0.6-0.8-1.2-0.7c-0.3-0.6-0.9-0.3-1.1-0.2c0.2,0.2,0.3,0.2,0.5,0.3v0.1
	c-0.4,0-0.5-0.2-0.8-0.5c-0.1,0.9,1,1.3,1.3,0.5c0.5,0,0.8,0.2,0.9,0.6c0.1,0.3,0,0.7-0.2,0.8c-0.3,0.4-0.8,0.4-1.3,0.1
	c-0.3-0.1-0.6-0.4-0.8-0.7c-0.4-0.4-0.6-0.6-0.9-0.8c-0.2-0.1-0.3-0.1-0.5-0.1c-0.1,0-0.2,0-0.3,0c-0.1,0-0.2,0-0.3,0
	c-0.7,0.1-1.4,0.4-2.2,0.5h-0.4c-0.3,0.3-0.5,0.5-0.7,0.6l-0.5,0.4l0,0c-0.2,0.2-0.3,0.3-0.3,0.3c0,0.5,0.1,0.7,0.1,1.1
	c0,0.4,0,0.6,0,0.7c0,0.2,0,0.3-0.1,0.4s-0.1,0.2-0.3,0.2c-0.1,0-0.5-0.2-0.6,0c-0.1,0.1,0,0.4,0.1,0.5h0.9c0.1-0.2,0.2-0.4,0.2-0.5
	c0.1-0.1,0.1-0.3,0.2-0.4c0.1-0.1,0.1-0.3,0.2-0.4c0-0.1,0-0.2,0.1-0.3c0.1-0.2,0.2-0.3,0.2-0.4c0,0,0,0,0-0.1c0,0,0.1,0.1,0.1,0.2
	c0.2,0.3,0.4,0.6,0.7,0.7c0.1,0,0.2,0.1,0.3,0.2c0,0,0,0.2,0,0.3s0,0.3-0.2,0.3c-0.2,0.1-0.5-0.2-0.6,0c-0.1,0.1,0,0.3,0.1,0.5h0.8
	c0.2-0.3,0.3-0.8,0.3-1.1c0-0.4,0-0.5-0.3-0.6c-0.1,0-0.2-0.3-0.2-0.4c0,0,0,0,0-0.1c0.4-0.1,0.8-0.4,1.3-0.7c0,0.1,0,0.1,0,0.2
	c0.1,0.6,0.1,1,0.6,1.4c0.1,0.1,0.2,0.2,0.2,0.3c0,0,0,0.2-0.1,0.3C36.4,20.8,36.2,21,36,21c-0.2,0-0.4-0.3-0.6-0.1
	c-0.1,0.1,0,0.4,0.1,0.5h0.8c0.3-0.5,0.7-0.9,0.8-1.2c0.1-0.2,0.1-0.3-0.1-0.3c-0.3-0.2-0.3-0.5-0.2-0.9c0-0.1,0-0.1,0.1-0.2
	c0.2,0.6,0.5,1.1,1.1,1.3c0.1,0,0.3,0.1,0.3,0.1c0,0,0,0.2,0,0.3c0,0.2-0.1,0.4-0.3,0.5c-0.2,0.1-0.6-0.3-0.7,0
	c-0.1,0.2,0.1,0.4,0.1,0.5h0.8c0.2-0.5,0.4-1,0.5-1.3c0-0.4,0-0.6-0.3-0.6c-0.2,0-0.3-0.1-0.3-0.3c-0.1-0.4-0.1-1.1-0.4-1.5
	c0.3,0.4,0.7,0.7,1,0.8c0.7,0.4,1.5,0.3,1.8-0.3C41.1,17.9,41.1,17.5,41,17.2"/>
<path class="st0" d="M48.2,7.3c-0.6-0.1-2.1,0.1-3.4,0.3c0.8-0.4,1-0.5,1.3-0.6c0.1,0,0.1-0.2,0.1-0.3c0-0.2-0.2-0.2-0.4-0.2
	c-0.2,0-0.6,0.2-1.2,0.3c-1.1,0.4-2.6,1.1-4.4,2.4c-1.6,1.1-2.7,2-3.8,3.2c-0.3,0.3-0.6,0.7-1,1.1c0-0.1-0.1-0.1-0.2-0.1
	c0.4-0.9,0.5-1,0.7-1.5c0.1-0.3,0-0.4,0-0.6c-0.1-0.2-0.3-0.1-0.4,0c-0.2,0.2-0.2,0.3-0.6,0.7c0.5-1.6,0.7-1.7,1.1-2.6
	c0-0.1,0-0.3,0-0.4c0-0.1-0.1-0.2-0.2-0.1c-0.2,0.1-0.2,0.2-0.6,0.6c0.5-0.9,1.1-2,1.2-2.1c0.1-0.2,0.2-0.2,0-0.5
	c-0.2-0.3-0.3,0-0.4,0c-0.1,0-0.3,0.3-0.6,0.6c0.7-1.3,1.3-1.9,1.4-2.1c0.2-0.3,0.2-0.3,0-0.6c-0.1-0.3-0.3-0.1-0.4,0
	c-0.5,0.5-0.5,0.3-1.3,1.3c0.4-1.1,1.1-2,1.4-2.4c0.1-0.2,0.1-0.3,0-0.6c0-0.2-0.2-0.3-0.4-0.3c-0.2,0.1-0.4,0.2-0.8,0.6
	c-0.9,0.8-2.1,2-3.1,4c-0.9,2-1.1,3.8-1.1,5.1c0,2,0.5,3.7,1,4.8c0,0,0-0.1,0-0.1c0-0.5,0-1.1,0.2-1.4c0.2-0.8,0.5-1.2,0.7-1.5
	l-0.4-0.5l0.5,0.2l-0.3-0.7c0,0,0.4,0,0.7,0.4c0.2-0.2,0.6-0.3,0.9,0c0.3,0,0.4,0,0.5,0.1c0.3,0.2,0.2,0.4,0.2,0.5
	c-0.1-0.1-0.6-0.4-0.9,0l0.8,0.3l-1,0.1v1l-1.2,1.1V17l0.8-0.7v0.4l-1.4,1.3v0.4l1.8-1.6l0,0l0.5-0.4l0,0c0.3-0.2,0.4-0.3,0.6-0.4
	c0.2-0.1,0.2,0,0.3,0.2c0,0.2,0.3,0.3,0.7,0c1.2-1.1,2.5-1.7,4-2.4c-0.8,0.5-2.1,1.3-2.6,1.8c-0.2,0.3,0,0.8,0.3,0.6
	c0.6-0.4,1.4-0.5,1.8-0.4c0.2,0,0.4-0.1,0.5-0.3c0.1-0.1,0.1-0.3-0.1-0.3c1.3-0.4,1.6-0.5,2.7-0.6c0.3,0,0.5-0.2,0.5-0.4
	c0-0.2,0-0.3-0.3-0.3c-0.3,0-0.8,0-1.4,0.1c1.2-0.5,2.7-0.8,3.9-1.1c0.4-0.1,0.4-0.2,0.4-0.4c0-0.3-0.1-0.3-0.6-0.3
	c-0.8,0-2.1,0.1-4.1,0.7c1.8-0.9,2.9-1.4,4.5-1.8c0.5-0.1,0.5-0.3,0.6-0.5c0.1-0.3-0.1-0.3-0.3-0.3c-0.3,0-0.8,0-2,0.3
	c1.1-0.5,2.3-1.1,3.2-1.3c0.2-0.1,0.3-0.2,0.3-0.4c0-0.2,0-0.2-0.2-0.2c-0.4,0-1,0.1-1.7,0.3c1.5-0.6,2-0.8,3-1
	c0.3-0.1,0.4-0.2,0.4-0.4C48.6,7.3,48.4,7.3,48.2,7.3 M33.3,12.4c0-0.1-0.1-0.2-0.2-0.3c0.2-0.6,0.4-0.9,0.8-1.5
	C33.6,11.3,33.4,12,33.3,12.4 M31.9,11.9c0.3-3.2,1.7-5.5,2.7-6.6C33.2,7.4,32.4,10.3,31.9,11.9 M37.2,12.8c1.9-1.8,4.4-3.7,7.6-4.4
	C42.1,9.3,38.4,11.9,37.2,12.8"/>
<polygon class="st0" points="52.3,10.3 51.2,7.2 51.8,7.2 52.7,9.6 53.5,7.2 54,7.2 52.9,10.3 "/>
<g transform="matrix(1, 0, 0, 1, -13, -5)">
	<path class="st0" d="M68,13.6h0.1c0.3,0,0.4,0,0.6-0.2c0.1-0.1,0.2-0.3,0.2-0.4c0-0.1,0-0.2-0.1-0.3s-0.3-0.1-0.5-0.1H68V13.6z
		 M67.4,15.3v-3h1.1c0.2,0,0.4,0,0.5,0.1c0.1,0,0.2,0.1,0.3,0.3c0.1,0.1,0.1,0.3,0.1,0.4c0,0.2,0,0.3-0.2,0.5
		c-0.1,0.2-0.3,0.3-0.4,0.4l1,1.4H69L68.3,14h-0.3v1.2C67.9,15.3,67.4,15.3,67.4,15.3z"/>
</g>
<rect x="57.3" y="7.2" class="st0" width="0.6" height="3"/>
<g transform="matrix(1, 0, 0, 1, -13, -5)">
	<path class="st0" d="M71.2,15.8v-0.5c0.2,0.1,0.3,0.1,0.5,0.1c0.1,0,0.1,0,0.2,0c0,0,0.1-0.1,0.1-0.1s0-0.2,0-0.4v-2.7h0.6v2.6
		c0,0.3,0,0.5-0.1,0.6c-0.1,0.1-0.2,0.3-0.3,0.3c-0.1,0.1-0.3,0.1-0.6,0.1C71.5,15.9,71.3,15.9,71.2,15.8"/>
</g>
<polygon class="st0" points="60.4,10.3 60.4,7.2 62.4,7.2 62.4,7.6 61.1,7.6 61.1,8.5 62.2,8.5 62.2,8.9 61.1,8.9 61.1,9.9 
	62.5,9.9 62.5,10.3 "/>
<g transform="matrix(1, 0, 0, 1, -13, -5)">
	<path class="st0" d="M64.5,17.8h0.6v1.9c0,0.3,0,0.6,0.2,0.7c0.1,0.1,0.3,0.2,0.4,0.2s0.3,0,0.4-0.2c0.1-0.1,0.2-0.3,0.2-0.6v-1.9
		h0.6v1.9c0,0.3,0,0.6-0.1,0.8c-0.1,0.2-0.2,0.3-0.4,0.3c-0.2,0.1-0.4,0.1-0.6,0.1c-0.3,0-0.5,0-0.6-0.1c-0.2-0.1-0.3-0.2-0.4-0.4
		c-0.1-0.2-0.2-0.4-0.2-0.8V17.8z"/>
</g>
<polygon class="st0" points="54.6,15.8 54.6,12.8 55.1,12.8 56.5,14.9 56.5,12.8 57.1,12.8 57.1,15.8 56.5,15.8 55.1,13.8 
	55.1,15.8 "/>
<rect x="57.9" y="12.8" class="st0" width="0.6" height="3"/>
<polygon class="st0" points="60,15.8 58.9,12.8 59.6,12.8 60.5,15.1 61.3,12.8 61.8,12.8 60.7,15.8 "/>
<polygon class="st0" points="62.1,15.8 62.1,12.8 64,12.8 64,13.2 62.8,13.2 62.8,14.1 63.8,14.1 63.8,14.4 62.8,14.4 62.8,15.4 
	64.2,15.4 64.2,15.8 "/>
<g transform="matrix(1, 0, 0, 1, -13, -5)">
	<path class="st0" d="M78.3,19.1h0.1c0.3,0,0.4,0,0.6-0.2c0.1-0.1,0.2-0.3,0.2-0.4s0-0.2-0.1-0.3c-0.1-0.1-0.3-0.1-0.5-0.1h-0.2
		V19.1z M77.7,20.8v-3h1.1c0.2,0,0.4,0,0.5,0.1c0.1,0,0.2,0.1,0.3,0.3c0.1,0.1,0.1,0.3,0.1,0.4c0,0.2,0,0.3-0.2,0.5
		c-0.1,0.2-0.3,0.3-0.4,0.3l1,1.4h-0.8l-0.8-1.2h-0.3v1.2L77.7,20.8L77.7,20.8z"/>
	<path class="st0" d="M80.3,20.8v-0.5c0.3,0.1,0.4,0.2,0.6,0.2s0.2,0,0.3,0c0.2,0,0.3,0,0.4-0.1c0.1-0.1,0.1-0.2,0.1-0.3
		c0-0.1,0-0.2-0.1-0.2c0-0.1-0.2-0.2-0.3-0.3l-0.2-0.1c-0.3-0.2-0.5-0.3-0.6-0.5c-0.1-0.1-0.2-0.3-0.2-0.5c0-0.2,0.1-0.4,0.3-0.6
		c0.2-0.2,0.4-0.3,0.8-0.3c0.3,0,0.5,0,0.8,0.1v0.5c-0.3-0.1-0.6-0.2-0.8-0.2c-0.2,0-0.3,0-0.3,0.1c-0.1,0.1-0.1,0.1-0.1,0.3
		c0,0.1,0,0.1,0.1,0.2c0,0,0.2,0.1,0.3,0.3l0.2,0.1c0.3,0.2,0.6,0.3,0.6,0.5c0.1,0.1,0.1,0.3,0.1,0.5c0,0.3-0.1,0.5-0.3,0.6
		c-0.2,0.2-0.5,0.3-0.9,0.3C80.9,20.9,80.6,20.8,80.3,20.8"/>
</g>
<rect x="69.9" y="12.8" class="st0" width="0.6" height="3"/>
<polygon class="st0" points="71.8,15.8 71.8,13.2 70.7,13.2 70.7,12.8 73.5,12.8 73.5,13.2 72.4,13.2 72.4,15.8 "/>
<polygon class="st0" points="73.8,15.8 73.8,12.8 75.7,12.8 75.7,13.2 74.4,13.2 74.4,14.1 75.5,14.1 75.5,14.4 74.4,14.4 
	74.4,15.4 75.8,15.4 75.8,15.8 "/>
<rect x="76.3" y="12.8" class="st0" width="0.6" height="3"/>
<path class="st0" d="M52.1,20.1H53l-0.5-1.2L52.1,20.1z M51.2,21.4l1.2-3H53l1.2,3h-0.6l-0.3-0.8H52l-0.3,0.8H51.2z"/>
<polygon class="st0" points="54.6,21.4 54.6,18.3 55.4,18.3 56.1,20.5 56.8,18.3 57.6,18.3 57.6,21.4 57,21.4 57,19.1 56.3,21.2 
	55.7,21.2 55,19 55,21.4 "/>
<g transform="matrix(1, 0, 0, 1, -13, -5)">
	<path class="st0" d="M71.2,26.3v-0.5c0.3,0.1,0.4,0.2,0.5,0.2c0.1,0,0.2,0,0.3,0c0.2,0,0.3,0,0.4-0.1c0.1-0.1,0.1-0.2,0.1-0.3
		c0-0.1,0-0.2-0.1-0.2c0-0.1-0.2-0.2-0.3-0.3L71.9,25c-0.3-0.2-0.5-0.3-0.6-0.5c-0.1-0.1-0.2-0.3-0.2-0.5c0-0.2,0.1-0.4,0.3-0.6
		c0.2-0.2,0.4-0.3,0.8-0.3c0.3,0,0.5,0,0.8,0.1v0.5c-0.3-0.1-0.6-0.2-0.8-0.2c-0.2,0-0.3,0-0.3,0.1c-0.1,0.1-0.1,0.1-0.1,0.3
		c0,0.1,0,0.1,0.1,0.2c0,0,0.2,0.1,0.3,0.3l0.2,0.1c0.3,0.2,0.6,0.3,0.6,0.5c0.1,0.1,0.1,0.3,0.1,0.5c0,0.3-0.1,0.5-0.3,0.6
		c-0.2,0.2-0.5,0.3-0.9,0.3C71.8,26.4,71.5,26.4,71.2,26.3"/>
</g>
<polygon class="st0" points="61.3,21.4 61.3,18.7 60.2,18.7 60.2,18.3 63,18.3 63,18.7 61.9,18.7 61.9,21.4 "/>
<polygon class="st0" points="63.3,21.4 63.3,18.3 65.2,18.3 65.2,18.7 63.9,18.7 63.9,19.6 65,19.6 65,20 63.9,20 63.9,20.9 
	65.3,20.9 65.3,21.4 "/>
<g transform="matrix(1, 0, 0, 1, -13, -5)">
	<path class="st0" d="M79.4,24.7h0.1c0.3,0,0.4,0,0.6-0.2c0.1-0.1,0.1-0.3,0.1-0.4c0-0.1,0-0.2-0.1-0.3c-0.1-0.1-0.3-0.1-0.5-0.1
		h-0.2L79.4,24.7L79.4,24.7z M78.8,26.4v-3H80c0.2,0,0.4,0,0.6,0.1c0.1,0,0.2,0.1,0.3,0.3s0.1,0.3,0.1,0.4c0,0.2,0,0.3-0.2,0.5
		c-0.1,0.2-0.3,0.3-0.4,0.4l1,1.4h-0.8l-0.8-1.2h-0.3v1.2C79.4,26.4,78.8,26.4,78.8,26.4z"/>
	<path class="st0" d="M82.3,25.9h0.5c0.3,0,0.4,0,0.6-0.1c0.1-0.1,0.2-0.2,0.3-0.4s0.1-0.4,0.1-0.6c0-0.2,0-0.4-0.1-0.6
		c-0.1-0.2-0.2-0.3-0.3-0.4c-0.1-0.1-0.3-0.1-0.7-0.1h-0.4L82.3,25.9L82.3,25.9z M81.6,26.4v-3h1.3c0.3,0,0.6,0,0.8,0.2
		c0.2,0.1,0.3,0.3,0.5,0.5s0.2,0.5,0.2,0.8c0,0.3,0,0.6-0.2,0.8c-0.1,0.3-0.3,0.4-0.5,0.6c-0.2,0.1-0.5,0.2-0.8,0.2L81.6,26.4
		L81.6,26.4z"/>
</g>
<path class="st0" d="M72.4,20.1h0.9l-0.5-1.2L72.4,20.1z M71.4,21.4l1.2-3h0.6l1.2,3h-0.6l-0.3-0.8h-1.3l-0.3,0.8H71.4z"/>
<polygon class="st0" points="74.7,21.4 74.7,18.3 75.6,18.3 76.3,20.5 77.1,18.3 77.8,18.3 77.8,21.4 77.2,21.4 77.2,19.1 
	76.5,21.2 76,21.2 75.2,19 75.2,21.4 "/>
</svg>
